# xmcd
#
# Track frame offsets:
#	150
#	15680
#	27884
#	41411
#	54834
#	69454
#	84031
#	93270
#	106701
#	119913
#	134493
#	144628
#	159574
#	174744
#	186782
#	199421
#
# Disc length: 2804 seconds
#
# Revision: 0
# Processed by: cddbd v1.5.2PL0 Copyright (c) Steve Scherf et al.
# Submitted via: audiograbber 1.83.01
#
DISCID=d60af210
DTITLE=Various Artist - Die Schönsten Melodien Von Kärnten Bis Tirol
DYEAR=1985
DGENRE=Folklore
TTITLE0=Franzl Lang - Das Kufsteiner Lied (Die Perle Tirols)
TTITLE1=Pat and Paul , Die Polka Singers , Orchester Werner Lang - Du Bist Die Ro
TTITLE1=se Vom Wörtersee
TTITLE2=Magrit Anderson and Roland Steinel - Mariandl
TTITLE3=Alpentrio Tirol - Ja Mir San Tiroler
TTITLE4=Uschi Bauer - Erzherzog-Johann-Jodler
TTITLE5=Sepp Viellechner - Salzburg-Lied
TTITLE6=Hansi Krönauer - Wenn Wir Schaun, Shaun, Schaun (Tirol, Tirol Du Bist S
TTITLE6=o Schö)
TTITLE7=Maria Und Margot Hellwig - Leitzachtaler Musikanten - Feierabend-Jodler
TTITLE8=Sepp Viellechner - Zillertal, Du Bist Mei# Freud'
TTITLE9=Lolita - Innsbrucklied
TTITLE10=Der Montanara Chor - Bergvagabunden Sind Wir
TTITLE11=Rudi Knabl - Auf Der Alm, Da Gibts Koa Sünd
TTITLE12=Original Alpenland-Quintett - Der Steirische Brauch
TTITLE13=Hansl Krönauer - Ein Tiroler Wollte Jagen
TTITLE14=Franzl Lang - Tiroler Holzhackerbuam
TTITLE15=Die Lustigen Musikanten - Kärntner Liedermarsch
EXTD=
EXTT0=
EXTT1=
EXTT2=
EXTT3=
EXTT4=
EXTT5=
EXTT6=
EXTT7=
EXTT8=
EXTT9=
EXTT10=
EXTT11=
EXTT12=
EXTT13=
EXTT14=
EXTT15=
PLAYORDER=
